<?xml version="1.0" encoding="UTF-8"?>
<svg xmlns="http://www.w3.org/2000/svg" viewBox="0 0 1000 1000" width="1000" height="1000">
  <path d="M 727.04 500.99
    Q 727.07 501.99 726.06 511.85
    Q 725.05 521.72 723.27 531.42
    Q 721.48 541.13 721.22 551.23
    Q 720.97 561.33 722.41 572.48
    Q 723.84 583.64 727.01 596.59
    Q 730.18 609.55 732.84 623.89
    Q 735.49 638.23 736.22 653.24
    Q 736.94 668.24 734.79 684.67
    Q 732.63 701.10 725.71 713.12
    Q 718.79 725.14 711.86 738.15
    Q 704.92 751.17 702.81 772.94
    Q 700.69 794.71 694.81 815.74
    Q 688.92 836.77 676.32 849.55
    Q 663.72 862.33 648.29 870.43
    Q 632.85 878.53 617.96 890.50
    Q 603.08 902.47 585.19 916.24
    Q 567.30 930.00 548.32 929.29
    Q 529.34 928.58 510.75 925.54
    Q 492.17 922.49 474.02 919.75
    Q 455.88 917.01 438.85 909.36
    Q 421.81 901.71 406.70 890.00
    Q 391.60 878.30 378.09 865.90
    Q 364.57 853.49 351.80 842.26
    Q 339.02 831.02 327.09 816.92
    Q 315.16 802.81 309.79 784.22
    Q 304.41 765.64 298.38 750.89
    Q 292.35 736.14 283.82 725.45
    Q 275.29 714.76 270.86 701.07
    Q 266.43 687.39 265.25 672.60
    Q 264.07 657.82 263.56 644.09
    Q 263.06 630.37 263.24 617.50
    Q 263.43 604.64 264.94 591.17
    Q 266.45 577.71 269.03 566.15
    Q 271.61 554.60 273.45 544.05
    Q 275.30 533.50 276.33 523.56
    Q 277.36 513.63 279.00 503.99
    Q 280.64 494.34 282.50 484.96
    Q 284.36 475.57 285.56 466.17
    Q 286.77 456.77 287.62 447.12
    Q 288.47 437.46 289.62 426.50
    Q 290.78 415.53 291.17 404.63
    Q 291.55 393.73 289.32 380.20
    Q 287.10 366.67 287.21 352.92
    Q 287.32 339.17 288.49 324.44
    Q 289.67 309.70 291.97 293.85
    Q 294.27 278.01 301.79 266.06
    Q 309.30 254.11 316.81 240.55
    Q 324.31 226.98 327.66 199.13
    Q 331.01 171.29 340.38 151.32
    Q 349.76 131.35 365.24 122.39
    Q 380.71 113.43 397.73 108.33
    Q 414.75 103.23 431.69 95.48
    Q 448.64 87.73 466.60 80.95
    Q 484.57 74.16 503.35 72.08
    Q 522.14 70.00 539.60 81.25
    Q 557.05 92.50 574.16 106.12
    Q 591.27 119.74 607.13 126.33
    Q 622.99 132.92 634.89 148.09
    Q 646.79 163.26 654.52 182.74
    Q 662.26 202.23 671.62 215.02
    Q 680.97 227.82 689.11 240.61
    Q 697.24 253.39 702.54 267.92
    Q 707.84 282.45 708.84 299.17
    Q 709.84 315.89 710.13 332.32
    Q 710.42 348.75 714.21 359.72
    Q 718.00 370.70 721.81 381.20
    Q 725.62 391.70 727.16 402.85
    Q 728.70 414.00 728.43 425.21
    Q 728.15 436.42 726.90 447.23
    Q 725.64 458.03 725.37 468.15
    Q 725.09 478.28 726.05 489.14
    Q 727.02 500.00 727.04 500.99
    Z"
        fill="#ffffff"
        stroke="#000000"
        stroke-width="7"
        stroke-linecap="round"
        stroke-linejoin="round"/>
</svg>
